<svg width="24" height="25" viewBox="0 0 24 25" fill="none" xmlns="http://www.w3.org/2000/svg">
<path d="M3.10015 1.23035C2.53701 0.622759 1.58795 0.586719 0.980353 1.14985C0.372759 1.71299 0.336719 2.66205 0.899855 3.26965L3.10015 1.23035ZM20.9431 24.2489C21.7709 24.2804 22.4675 23.6348 22.4989 22.8069L23.0112 9.31665C23.0426 8.48881 22.397 7.79224 21.5692 7.7608C20.7414 7.72937 20.0448 8.37497 20.0134 9.2028L19.558 21.1942L7.56664 20.7388C6.73881 20.7074 6.04224 21.353 6.0108 22.1808C5.97937 23.0086 6.62497 23.7052 7.4528 23.7366L20.9431 24.2489ZM0.899855 3.26965L19.8999 23.7696L22.1001 21.7304L3.10015 1.23035L0.899855 3.26965Z" fill="white"/>
</svg>
