<svg width="28" height="24" viewBox="0 0 28 24" fill="none" xmlns="http://www.w3.org/2000/svg">
<path fill-rule="evenodd" clip-rule="evenodd" d="M25.984 10.0157C25.984 9.46358 26.4324 9.01514 26.9845 9.01514C27.5366 9.01514 27.9851 9.46358 27.9851 10.0157C27.9851 17.0021 22.8503 22.7969 16.1531 23.8346C15.6075 23.9197 15.0969 23.5454 15.0118 22.9999C14.9278 22.4543 15.302 21.9426 15.8476 21.8586C21.5857 20.9693 25.984 16.0015 25.984 10.0157Z" fill="#FEFCF8"/>
<path fill-rule="evenodd" clip-rule="evenodd" d="M12.1531 21.8586C12.6987 21.9426 13.0729 22.4543 12.9889 22.9999C12.9038 23.5454 12.3932 23.9197 11.8476 23.8346C5.15038 22.7969 0.015625 17.0021 0.015625 10.0157C0.015625 9.46358 0.464079 9.01514 1.01618 9.01514C1.56828 9.01514 2.01672 9.46358 2.01672 10.0157C2.01672 16.0015 6.41499 20.9693 12.1531 21.8586Z" fill="#FEFCF8"/>
<path fill-rule="evenodd" clip-rule="evenodd" d="M19.0699 11.0952C19.4606 10.7045 20.0932 10.7045 20.4838 11.0952C20.8745 11.4858 20.8745 12.1184 20.4838 12.5091L14.6888 18.3041C14.2982 18.6947 13.6647 18.6955 13.2741 18.3049L7.3898 12.4206C6.99918 12.03 7.00001 11.3965 7.39063 11.0059C7.78041 10.6161 8.41392 10.6152 8.80453 11.0059L13.9819 16.1832L19.0699 11.0952Z" fill="#FEFCF8"/>
<path fill-rule="evenodd" clip-rule="evenodd" d="M14.9996 17.0081C14.9996 17.5598 14.5522 18.0085 13.9998 18.0085C13.4474 18.0085 13 17.5598 13 17.0081V1.00041C13 0.448696 13.4474 0 13.9998 0C14.5522 0 14.9996 0.448696 14.9996 1.00041V17.0081Z" fill="#FEFCF8"/>
</svg>
